<svg id="earth-grid" xmlns="http://www.w3.org/2000/svg" width="90" height="90" viewBox="0 0 90 90">
  <g id="Group_9" data-name="Group 9" transform="translate(43.242 69.646)">
    <g id="Group_8" data-name="Group 8">
      <path id="Path_11" data-name="Path 11" d="M249,396.723a1.759,1.759,0,1,0,.515,1.245A1.77,1.77,0,0,0,249,396.723Z" transform="translate(-246 -396.21)" fill="#1a1b41"/>
    </g>
  </g>
  <g id="Group_11" data-name="Group 11" transform="translate(10.547 10.575)">
    <g id="Group_10" data-name="Group 10">
      <path id="Path_12" data-name="Path 12" d="M128.852,94.161A34.441,34.441,0,0,0,94.878,60.188a3.568,3.568,0,0,0-.851,0A34.441,34.441,0,0,0,60.054,94.161a1.7,1.7,0,0,0,0,.851,34.4,34.4,0,0,0,68.8,0,1.7,1.7,0,0,0,0-.851ZM117.447,73.985a15.15,15.15,0,0,1-4.5,1.616,18.725,18.725,0,0,0-3.6-8.068A31.09,31.09,0,0,1,117.447,73.985ZM96.211,75.87V63.814A15.326,15.326,0,0,1,109.42,75.87Zm0,3.516h13.532V92.829H96.211Zm0,16.959h13.532v13.444H96.211ZM92.7,63.814V75.87H79.487A15.326,15.326,0,0,1,92.7,63.814ZM79.163,92.829V79.385H92.7V92.829ZM92.7,96.345v13.444H79.163V96.345ZM79.562,67.532a18.726,18.726,0,0,0-3.6,8.068,15.145,15.145,0,0,1-4.5-1.616A31.09,31.09,0,0,1,79.562,67.532ZM69.24,76.762a18.633,18.633,0,0,0,6.408,2.353V92.829H63.616A30.705,30.705,0,0,1,69.24,76.762Zm0,35.649a30.707,30.707,0,0,1-5.624-16.067H75.648v13.714A18.636,18.636,0,0,0,69.24,112.411Zm2.22,2.778a15.148,15.148,0,0,1,4.494-1.615,18.725,18.725,0,0,0,3.588,8.057A31.09,31.09,0,0,1,71.46,115.189Zm23.388,10.282c-.131,0-.262,0-.394,0s-.263,0-.394,0A15.318,15.318,0,0,1,79.483,113.3H92.7v1.408a1.758,1.758,0,1,0,3.516,0V113.3h13.212A15.318,15.318,0,0,1,94.847,125.471Zm14.517-3.84a18.726,18.726,0,0,0,3.588-8.057,15.144,15.144,0,0,1,4.494,1.615A31.09,31.09,0,0,1,109.364,121.63Zm10.3-9.219a18.633,18.633,0,0,0-6.408-2.353V96.345h12.032A30.708,30.708,0,0,1,119.667,112.411Zm-6.408-19.582V79.115a18.641,18.641,0,0,0,6.408-2.353,30.707,30.707,0,0,1,5.624,16.066Z" transform="translate(-60 -60.162)" fill="#1a1b41"/>
    </g>
  </g>
  <g id="Group_13" data-name="Group 13" transform="translate(17.154 0)">
    <g id="Group_12" data-name="Group 12">
      <path id="Path_13" data-name="Path 13" d="M155.979,8.127a6.287,6.287,0,0,0-3.39.989,45.007,45.007,0,0,0-54.3-.007,1.758,1.758,0,0,0,2.123,2.8,41.493,41.493,0,0,1,49.847-.153,6.327,6.327,0,1,0,5.723-3.632Zm0,9.141a2.813,2.813,0,1,1,2.813-2.813A2.816,2.816,0,0,1,155.979,17.268Z" transform="translate(-97.589 0)" fill="#1a1b41"/>
    </g>
  </g>
  <g id="Group_15" data-name="Group 15" transform="translate(12.254 13.071)">
    <g id="Group_14" data-name="Group 14">
      <path id="Path_14" data-name="Path 14" d="M72.707,74.85A1.774,1.774,0,0,0,70.235,77.4a1.742,1.742,0,0,0,1.22.493,1.78,1.78,0,0,0,1.275-.536l.007-.007A1.772,1.772,0,0,0,72.707,74.85Z" transform="translate(-69.71 -74.361)" fill="#1a1b41"/>
    </g>
  </g>
  <g id="Group_17" data-name="Group 17" transform="translate(0 18.223)">
    <g id="Group_16" data-name="Group 16">
      <path id="Path_15" data-name="Path 15" d="M87.257,114.94a1.758,1.758,0,0,0,1.444-3.187L83.567,108.8a1.758,1.758,0,0,0-2.635,1.524l0,5.925A1.758,1.758,0,0,0,82.694,118h0a1.756,1.756,0,0,0,1.572-.978A41.49,41.49,0,1,1,3.516,130.444a41.206,41.206,0,0,1,7.644-24,1.758,1.758,0,0,0-2.866-2.036A45,45,0,0,0,76.82,162.264,45.053,45.053,0,0,0,87.257,114.94Z" transform="translate(0 -103.666)" fill="#1a1b41"/>
    </g>
  </g>
</svg>
