<svg xmlns="http://www.w3.org/2000/svg" width="231.068" height="231.068" viewBox="0 0 231.068 231.068">
  <g id="Group_109" data-name="Group 109" transform="translate(0 0)">
    <g id="Group_108" data-name="Group 108">
      <path id="Path_67" data-name="Path 67" d="M333.55,358.4H225.718a3.851,3.851,0,1,0,0,7.7H333.55a3.851,3.851,0,0,0,0-7.7Z" transform="translate(-121.737 -196.652)" fill="#1b1b1e"/>
      <path id="Path_68" data-name="Path 68" d="M411.789,187.733h-15.4a3.851,3.851,0,1,0,0,7.7h15.4a3.851,3.851,0,0,0,0-7.7Z" transform="translate(-215.381 -103.008)" fill="#43cc0e"/>
      <path id="Path_69" data-name="Path 69" d="M411.789,290.133h-15.4a3.851,3.851,0,1,0,0,7.7h15.4a3.851,3.851,0,1,0,0-7.7Z" transform="translate(-215.381 -159.194)" fill="#43cc0e"/>
      <path id="Path_70" data-name="Path 70" d="M411.789,238.933h-15.4a3.851,3.851,0,1,0,0,7.7h15.4a3.851,3.851,0,0,0,0-7.7Z" transform="translate(-215.381 -131.101)" fill="#43cc0e"/>
      <path id="Path_71" data-name="Path 71" d="M96.278,177.153H92.427V11.553A11.568,11.568,0,0,0,80.874,0H34.66A11.568,11.568,0,0,0,23.107,11.553V165.6a3.851,3.851,0,0,0,7.7,0V11.553A3.857,3.857,0,0,1,34.66,7.7H80.874a3.857,3.857,0,0,1,3.851,3.851V196.408a3.857,3.857,0,0,1-3.851,3.851H34.66a3.857,3.857,0,0,1-3.851-3.851V181a3.853,3.853,0,0,0-3.851-3.851h-7.7c-6.909,0-11.553-4.644-11.553-11.553V26.958a11.43,11.43,0,0,1,5.788-9.94,3.852,3.852,0,0,0-3.874-6.659A19.306,19.306,0,0,0,0,26.958V165.6c0,11.157,8.1,19.256,19.256,19.256h3.851v11.553A11.568,11.568,0,0,0,34.66,207.962H80.874a11.568,11.568,0,0,0,11.553-11.553V184.855h3.851a3.851,3.851,0,0,0,0-7.7Z" transform="translate(0 0)" fill="#1b1b1e"/>
      <path id="Path_72" data-name="Path 72" d="M335.212,392.533a3.85,3.85,0,0,0-3.851,3.851v42.363H246.636V396.384a3.851,3.851,0,1,0-7.7,0V442.6a3.853,3.853,0,0,0,3.851,3.851h92.428a3.852,3.852,0,0,0,3.851-3.851V396.384A3.85,3.85,0,0,0,335.212,392.533Z" transform="translate(-131.102 -215.38)" fill="#1b1b1e"/>
      <path id="Path_73" data-name="Path 73" d="M293.985,451.436H332.5a3.851,3.851,0,1,0,0-7.7H293.985a3.851,3.851,0,0,0,0,7.7Z" transform="translate(-159.195 -243.474)" fill="#1b1b1e"/>
      <path id="Path_74" data-name="Path 74" d="M293.985,417.3H340.2a3.851,3.851,0,0,0,0-7.7H293.985a3.851,3.851,0,0,0,0,7.7Z" transform="translate(-159.195 -224.746)" fill="#1b1b1e"/>
      <path id="Path_75" data-name="Path 75" d="M259.851,246.636h15.4a3.851,3.851,0,1,0,0-7.7h-15.4a3.851,3.851,0,0,0,0,7.7Z" transform="translate(-140.466 -131.102)" fill="#43cc0e"/>
      <path id="Path_76" data-name="Path 76" d="M259.851,195.436h15.4a3.851,3.851,0,1,0,0-7.7h-15.4a3.851,3.851,0,1,0,0,7.7Z" transform="translate(-140.466 -103.009)" fill="#43cc0e"/>
      <path id="Path_77" data-name="Path 77" d="M259.851,297.836h15.4a3.851,3.851,0,1,0,0-7.7h-15.4a3.851,3.851,0,1,0,0,7.7Z" transform="translate(-140.466 -159.195)" fill="#43cc0e"/>
      <path id="Path_78" data-name="Path 78" d="M333.55,17.067H225.718a3.851,3.851,0,1,0,0,7.7H333.55A11.568,11.568,0,0,1,345.1,36.322V178.815a11.6,11.6,0,0,1-5.715,9.971,3.852,3.852,0,1,0,3.9,6.643,19.336,19.336,0,0,0,9.516-16.613V36.322A19.277,19.277,0,0,0,333.55,17.067Z" transform="translate(-121.737 -9.365)" fill="#1b1b1e"/>
      <path id="Path_79" data-name="Path 79" d="M343.522,238.933h-15.4a3.851,3.851,0,0,0,0,7.7h15.4a3.851,3.851,0,0,0,0-7.7Z" transform="translate(-177.923 -131.101)" fill="#43cc0e"/>
      <path id="Path_80" data-name="Path 80" d="M340.725,89.185a3.853,3.853,0,0,0-3.851-3.851H259.851A3.853,3.853,0,0,0,256,89.185v23.107a3.853,3.853,0,0,0,3.851,3.851h77.023a3.853,3.853,0,0,0,3.851-3.851Zm-7.7,19.255H263.7v-15.4h69.321Z" transform="translate(-140.466 -46.822)" fill="#1b1b1e"/>
      <path id="Path_81" data-name="Path 81" d="M343.522,290.133h-15.4a3.851,3.851,0,1,0,0,7.7h15.4a3.851,3.851,0,1,0,0-7.7Z" transform="translate(-177.923 -159.194)" fill="#43cc0e"/>
      <path id="Path_82" data-name="Path 82" d="M343.522,187.733h-15.4a3.851,3.851,0,1,0,0,7.7h15.4a3.851,3.851,0,1,0,0-7.7Z" transform="translate(-177.923 -103.008)" fill="#43cc0e"/>
    </g>
  </g>
</svg>
