<svg xmlns="http://www.w3.org/2000/svg" width="90" height="90" viewBox="0 0 90 90">
  <path id="network" d="M80.182,0a9.817,9.817,0,0,0-8.63,14.5L55.468,30.582a13,13,0,0,0-16.028,0L26.89,18.031a6.459,6.459,0,0,0,.928-3.3,6.545,6.545,0,1,0-6.545,6.545,6.459,6.459,0,0,0,3.3-.928L37.126,32.894a13.007,13.007,0,0,0,0,16.028L16.4,69.647a9.719,9.719,0,1,0,2.045,2.582L39.441,51.236a13.014,13.014,0,0,0,6.379,2.649V70.511a9.818,9.818,0,1,0,3.273,0V53.885a13.014,13.014,0,0,0,6.379-2.649L68.02,63.785a6.455,6.455,0,0,0-.929,3.305,6.545,6.545,0,1,0,6.545-6.545,6.459,6.459,0,0,0-3.3.928L57.783,48.924a13.007,13.007,0,0,0,0-16.028L73.6,17.08A9.811,9.811,0,1,0,80.182,0ZM18,14.727A3.273,3.273,0,1,1,21.273,18,3.276,3.276,0,0,1,18,14.727ZM9.818,83.455a6.545,6.545,0,1,1,6.545-6.545A6.552,6.552,0,0,1,9.818,83.455ZM54,80.182a6.545,6.545,0,1,1-6.545-6.545A6.552,6.552,0,0,1,54,80.182ZM47.455,50.727a9.818,9.818,0,1,1,9.818-9.818A9.828,9.828,0,0,1,47.455,50.727ZM76.909,67.091a3.273,3.273,0,1,1-3.273-3.273A3.276,3.276,0,0,1,76.909,67.091Zm3.273-50.727a6.545,6.545,0,1,1,6.545-6.545A6.552,6.552,0,0,1,80.182,16.364Z" fill="#1a1b41"/>
</svg>
