<svg xmlns="http://www.w3.org/2000/svg" width="99.215" height="81" viewBox="0 0 99.215 81">
  <g id="pay" transform="translate(1 -37.309)">
    <g id="Group_5" data-name="Group 5" transform="translate(-1 37.308)">
      <g id="Group_4" data-name="Group 4" transform="translate(0 0)">
        <path id="Path_4" data-name="Path 4" d="M265.187,260.465h26.449a1.562,1.562,0,0,0,1.653-1.653V243.934a1.562,1.562,0,0,0-1.653-1.653H265.187a1.562,1.562,0,0,0-1.653,1.653v14.878A1.562,1.562,0,0,0,265.187,260.465Zm1.653-14.878h23.143v11.571H266.84Z" transform="translate(-212.289 -204.26)" fill="#1a1b41"/>
        <path id="Path_5" data-name="Path 5" d="M34.787,211.453H48.012a1.653,1.653,0,1,0,0-3.306H34.787a1.653,1.653,0,1,0,0,3.306Z" transform="translate(-26.522 -176.739)" fill="#1a1b41"/>
        <path id="Path_6" data-name="Path 6" d="M137.187,211.453h13.225a1.653,1.653,0,1,0,0-3.306H137.187a1.653,1.653,0,0,0,0,3.306Z" transform="translate(-109.085 -176.739)" fill="#1a1b41"/>
        <path id="Path_7" data-name="Path 7" d="M34.787,245.587h21.49a1.653,1.653,0,1,0,0-3.306H34.787a1.653,1.653,0,1,0,0,3.306Z" transform="translate(-26.522 -204.261)" fill="#1a1b41"/>
        <path id="Path_8" data-name="Path 8" d="M184.812,242.28h-4.959a1.653,1.653,0,0,0,0,3.306h4.959a1.653,1.653,0,0,0,0-3.306Z" transform="translate(-143.486 -204.26)" fill="#1a1b41"/>
        <path id="Path_9" data-name="Path 9" d="M96.7,63.536a6.159,6.159,0,0,0-4.463-2.48l-3.967-.481v-7.95a6.632,6.632,0,0,0-6.612-6.612H5.612A6.631,6.631,0,0,0-1,52.626v52.9a6.637,6.637,0,0,0,4.737,6.338,6.433,6.433,0,0,0,5.843,6.556l76.371,8.6h.661a6.619,6.619,0,0,0,6.612-5.62L98.184,68.33A6.425,6.425,0,0,0,96.7,63.536ZM2.306,57.585H84.959V67.5H2.306ZM5.612,49.32H81.653a3.316,3.316,0,0,1,3.306,3.306v1.653H2.306V52.626A3.316,3.316,0,0,1,5.612,49.32Zm-3.306,56.2V70.81H84.959v34.714a3.316,3.316,0,0,1-3.306,3.306H5.612A3.316,3.316,0,0,1,2.306,105.524ZM94.878,67.669l-4.959,53.063a3.334,3.334,0,0,1-3.637,2.976l-76.206-8.6A3.342,3.342,0,0,1,7.1,112.136H81.653a6.632,6.632,0,0,0,6.612-6.612V63.7l3.8.331a2.826,2.826,0,0,1,2.149,1.157A3.348,3.348,0,0,1,94.878,67.669Z" transform="translate(1 -46.014)" fill="#1a1b41"/>
      </g>
    </g>
  </g>
</svg>
