<svg xmlns="http://www.w3.org/2000/svg" width="107.083" height="24.63" viewBox="0 0 107.083 24.63">
  <g id="Smart_Web_white" data-name="Smart Web white" transform="translate(2168.102 -3934)" opacity="0.6">
    <g id="_1536212741664" transform="translate(-2168.101 3934.008)">
      <g id="Group_124" data-name="Group 124" transform="translate(0 0)">
        <path id="Path_89" data-name="Path 89" d="M-923.15,3997h0a4.851,4.851,0,0,0-1.85.429A11.587,11.587,0,0,1-923.15,3997Z" transform="translate(935.452 -3996.479)" fill="rgba(255,255,255,0.6)"/>
        <path id="Path_90" data-name="Path 90" d="M-1731.735,3961.459a5.322,5.322,0,0,1,4.3-1.648.485.485,0,0,1,.017-.109h0c-2.212-.58-8.972,1.245-8.678,5.878A13.428,13.428,0,0,1-1731.735,3961.459Z" transform="translate(1739.74 -3959.391)" fill="rgba(255,255,255,0.6)"/>
        <g id="Group_122" data-name="Group 122" transform="translate(0.15)">
          <path id="Path_91" data-name="Path 91" d="M-1110.536,3935.513h.025a4.418,4.418,0,0,0,1.236-.42c0-.008-.008-.008-.008-.017h-.042a4.254,4.254,0,0,1-.58-.05c-.336-.017-.4-.025-.547-.025h-.555c-.387.025-.4.017-.589.034-.42.042-.437.042-.656.076a13.232,13.232,0,0,0-1.749.378C-1110.923,3934.647-1110.569,3935.361-1110.536,3935.513Z" transform="translate(1122.712 -3935)" fill="rgba(255,255,255,0.6)"/>
          <path id="Path_92" data-name="Path 92" d="M-2149.026,4187.058a14.129,14.129,0,0,1,1.076-5.306c-.362-1.833-.311-4.263,3.271-6.752a12.052,12.052,0,0,0-1.572,1.236,12.821,12.821,0,0,0-1.4,1.513,13.251,13.251,0,0,0-1.118,1.715,11.817,11.817,0,0,0-.824,1.867c-.1.345-.252.8-.336,1.152a7.134,7.134,0,0,0,.934,5.474C-2149.018,4187.663-2149.026,4187.36-2149.026,4187.058Z" transform="translate(2150.112 -4172.982)" fill="rgba(255,255,255,0.6)"/>
        </g>
        <g id="Group_123" data-name="Group 123" transform="translate(0 0.268)">
          <path id="Path_93" data-name="Path 93" d="M-698,3967.125v.008c1.572.286,3.162.5,4.734.791a5.823,5.823,0,0,1,1.438.378h-.008a11.341,11.341,0,0,0-1.606-.8,9.892,9.892,0,0,0-1.144-.4c-.58-.16-.58-.16-.874-.227A21.475,21.475,0,0,0-698,3967.125Z" transform="translate(710.361 -3966.872)" fill="rgba(255,255,255,0.6)"/>
          <path id="Path_94" data-name="Path 94" d="M-2166.243,5516.4A7.988,7.988,0,0,1-2168,5512c.034.4.084.95.143,1.354a11.711,11.711,0,0,0,.513,2.01,12.291,12.291,0,0,0,.816,1.884,13.367,13.367,0,0,0,1.1,1.707c.193.227.429.538.631.756a12.265,12.265,0,0,0,1.463,1.329A10.085,10.085,0,0,1-2166.243,5516.4Z" transform="translate(2168 -5499.008)" fill="rgba(255,255,255,0.6)"/>
        </g>
        <path id="Path_95" data-name="Path 95" d="M-718.986,3998h-.025c-1.043,1.362,3.8,3.221,7.013,4.457,2.573.992,3.742,1.488,4.112,2.144-.16-.311-.378-.74-.555-1.043a12.672,12.672,0,0,0-1.177-1.673,13.13,13.13,0,0,0-1.429-1.455c-.555-.378-1.312-.572-3.809-1.2a35.183,35.183,0,0,1-4.078-1.211C-718.952,3998.017-718.969,3998-718.986,3998Z" transform="translate(731.338 -3997.47)" fill="rgba(255,255,255,0.6)"/>
        <path id="Path_96" data-name="Path 96" d="M-1158.828,3997.008l-.008-.008a10.972,10.972,0,0,0-3.086.917c-.933.891-3.044,4.247,8.879,9.67,3.868,1.757,6.416,2.918,6.247,4.179l.126-.631a11.8,11.8,0,0,0,.177-2.11,14.138,14.138,0,0,0-.269-2.649l-.084-.387c-.345-.833-1.3-1.329-4.936-2.842C-1161.375,3999.153-1160.316,3997.58-1158.828,3997.008Z" transform="translate(1171.138 -3996.479)" fill="rgba(255,255,255,0.6)"/>
        <path id="Path_97" data-name="Path 97" d="M-1816.04,4270a14.27,14.27,0,0,0-3.96,4.658c1.312,5.709,9.619,10.073,14.463,12.176,2.808,1.219,3.607,1.69,3.086,2.253l.151-.126a12.59,12.59,0,0,0,1.387-1.521,13.268,13.268,0,0,0,1.118-1.715l.42-.858c.185-.689-.1-1.371-5.465-3.868C-1815.712,4275.92-1816.931,4272.22-1816.04,4270Z" transform="translate(1822.926 -4267.183)" fill="rgba(255,255,255,0.6)"/>
      </g>
    </g>
    <g id="_1536212741696" transform="translate(-2168.102 3934)">
      <g id="Group_125" data-name="Group 125" transform="translate(0 0)">
        <path id="Path_98" data-name="Path 98" d="M-2127.664,3942.358a12.58,12.58,0,0,1,.824-1.867,13.269,13.269,0,0,1,1.118-1.715,11.979,11.979,0,0,1,1.4-1.514,12.037,12.037,0,0,1,1.573-1.236,12.426,12.426,0,0,1,3.279-1.53,12.116,12.116,0,0,1,1.749-.378c.437-.059.437-.059.656-.076.387-.025.387-.025.589-.034.311-.008.311-.008.555-.008a5.471,5.471,0,0,1,.546.034c.378.025.378.05.58.05h0c-.109,0-10.99,1.909-13.2,9.434C-2127.9,3943.174-2127.781,3942.694-2127.664,3942.358Z" transform="translate(2128.337 -3934)" fill="#fff"/>
        <path id="Path_99" data-name="Path 99" d="M-2165.528,3986.945a11.685,11.685,0,0,1-1.1-1.707,11.336,11.336,0,0,1-.816-1.884,12.2,12.2,0,0,1-.513-2.01c-.051-.4-.118-.942-.143-1.354-.008-1.135-.025-4.154,3.7-7.391a29.459,29.459,0,0,1,10.6-5.39c.538-.168.538-.168.6-.21.538.126.563.135.875.227a9.814,9.814,0,0,1,1.144.4,11.845,11.845,0,0,1,1.606.8h.009a1.126,1.126,0,0,0,.1.084c.008.353-.168.488-2.581,1.556-17.809,7.854-15.7,14.42-12.848,17.632C-2165.091,3987.475-2165.352,3987.181-2165.528,3986.945Z" transform="translate(2168.102 -3966.723)" fill="#fff"/>
        <path id="Path_100" data-name="Path 100" d="M-1860.917,4307.685c-3.052-1.749-11.318-8.241,10.427-18.465,2.775-1.3,3.633-1.732,3.212-2.22a12.41,12.41,0,0,1,1.429,1.455,11.862,11.862,0,0,1,1.177,1.673c.168.312.4.723.555,1.043.177.656.017.95-4.869,3.422-22.333,11.3-8.156,14.126-6.508,13.992A9.414,9.414,0,0,1-1860.917,4307.685Z" transform="translate(1867.569 -4284.032)" fill="#fff"/>
        <path id="Path_101" data-name="Path 101" d="M-1194.612,5066l.084.387a13.343,13.343,0,0,1,.269,2.648,13.017,13.017,0,0,1-.177,2.111l-.126.63c-.328.858-1.345,1.27-3.809,2.271-12.958,5.255-8.762,6.8-8.249,6.962-3.515-.059-6.147-2.329-2.438-5.877,2.464-2.354,6.5-4.289,9.745-5.836C-1195.756,5067.6-1194.436,5066.875-1194.612,5066Z" transform="translate(1218.906 -5056.481)" fill="#fff"/>
        <path id="Path_102" data-name="Path 102" d="M-720.316,6038l-.42.858a11.9,11.9,0,0,1-1.118,1.715,12.868,12.868,0,0,1-1.387,1.521l-.151.126c-.555.412-1.261.614-3.809,1.245a25.854,25.854,0,0,0-4.381,1.37c-1.009-1.067,1.648-2.758,7.9-5.02C-721.9,6039.169-720.618,6038.665-720.316,6038Z" transform="translate(743.869 -6020.309)" fill="#fff"/>
      </g>
    </g>
    <g id="_1536212739648" transform="translate(-2141.816 3939.827)">
      <path id="Path_103" data-name="Path 103" d="M962.347,4632.356c-1.295-.513-2.464-.934-2.464-2.212,0-1.1.933-1.648,2.06-1.648.959,0,2.018.37,2.018,1.068v.808h1.513v-1.379c0-1.312-1.791-1.993-3.532-1.993-1.951,0-3.717.967-3.717,3.229,0,2.128,1.547,2.809,3.078,3.4,1.421.58,2.783,1.042,2.783,2.438,0,1.186-.95,1.833-2.279,1.833-1.211,0-2.287-.53-2.287-1.413v-.857H958v1.236c0,1.715,2,2.548,3.809,2.548,2.144,0,3.944-1.194,3.944-3.49C965.753,4633.7,964.054,4633.021,962.347,4632.356Z" transform="translate(-958 -4627)" fill="#fff"/>
      <path id="Path_104" data-name="Path 104" d="M2092.779,4787.611c-.622,0-1.749-.219-1.749-1.977v-3.792h1.985v-1.623h-1.985V4778H2089.4v2.22h-2.388a2.948,2.948,0,0,0-2.623,2.22h-.034a5.325,5.325,0,0,0,.025-.555v-.547c0-.7-.336-1-1.051-1h-1.875v1.278h1.034a.329.329,0,0,1,.37.37v5.709h-2.7l-3.364-7.711h-1.74l-3.364,7.711h-1.682v-4.264c0-2.194-.883-3.279-2.724-3.279a3.245,3.245,0,0,0-2.985,2.051h-.033a2.252,2.252,0,0,0-2.422-2.06,3.364,3.364,0,0,0-2.96,2.06h-.025a1.88,1.88,0,0,0,.059-.479v-.437c0-.631-.362-.95-1.059-.95H2056v1.278h1c.227,0,.4.109.4.353v5.727h-1.286v1.278h4.2V4787.7h-1.4v-2.649c0-1.69.933-3.422,2.506-3.422,1.278,0,1.463,1.043,1.463,2.161v5.188h2.918V4787.7h-1.286v-2.725c0-1.7.866-3.347,2.422-3.347,1.244,0,1.438.95,1.438,2.161v5.188h6.071V4787.7h-1.211l.378-.892v-.017l1.329-3.17h0v-.009l.774-1.766a3.919,3.919,0,0,0,.185-.689h.042a2.7,2.7,0,0,0,.185.689l.833,1.926,1.043,2.564c.008,0,.008.017.008.017l.572,1.346h-1.219v1.278h8.291V4787.7h-1.169v-2.312c0-1.682.723-3.531,2.5-3.531.109,0,1.244-.009,2.413-.009v3.952a2.9,2.9,0,0,0,3.162,3.212,4.361,4.361,0,0,0,.572-.033v-1.379A2.918,2.918,0,0,1,2092.779,4787.611Z" transform="translate(-2046.767 -4776.73)" fill="#fff"/>
    </g>
    <path id="Path_105" data-name="Path 105" d="M6526,4651h4.12v1.312h-1.379l1.808,7.871c.084.429.126.9.126.9h.051s.067-.471.168-.9l2.422-9.183h1.4l2.414,9.183a5.908,5.908,0,0,1,.16.9h.067a8.561,8.561,0,0,1,.117-.9l1.8-7.871H6537.9V4651h4.128v1.312h-1.109l-2.6,10.7h-1.867l-2.262-8.518a5.622,5.622,0,0,1-.152-.95h-.067a5.134,5.134,0,0,1-.143.95l-2.262,8.518h-1.875l-2.573-10.7H6526Z" transform="translate(-8620.997 -710.971)" fill="#fff"/>
    <path id="Path_106" data-name="Path 106" d="M9459.4,4652.278H9458V4651h2.984v3.978a4.877,4.877,0,0,1-.05.715h.034a2.992,2.992,0,0,1,2.674-1.5c2.244,0,3.657,1.841,3.657,4.507,0,2.741-1.589,4.507-3.792,4.507a2.9,2.9,0,0,1-2.624-1.563h-.034a4.583,4.583,0,0,1,.051.681v.682h-1.5Zm3.9,9.5h0c1.295,0,2.38-1.1,2.38-3.061,0-1.867-.967-3.078-2.346-3.078-1.228,0-2.4.9-2.4,3.095C9460.935,4660.267,9461.708,4661.78,9463.3,4661.78Z" transform="translate(-11528.344 -710.971)" fill="#fff"/>
    <g id="_1536212738720" transform="translate(-2078.281 3944.015)">
      <path id="Path_107" data-name="Path 107" d="M8520.769,5126.169H8514V5125h6.769Z" transform="translate(-8514 -5125)" fill="#fff"/>
      <path id="Path_108" data-name="Path 108" d="M8520.769,5932.278H8514V5931h6.769Z" transform="translate(-8514 -5924.223)" fill="#fff"/>
      <path id="Path_109" data-name="Path 109" d="M8520.769,5542.815H8514V5542h6.769Z" transform="translate(-8514 -5538.494)" fill="#fff"/>
    </g>
    <g id="_1536212735776" transform="translate(-2141.74 3953.718)">
      <path id="Path_110" data-name="Path 110" d="M967,6284.925h.261l.135-1.69h-.261V6283h.589l.53,1.32c.034.092.05.16.05.16h.008a.811.811,0,0,1,.042-.16l.538-1.32h.589v.235h-.261l.126,1.69h.261v.236h-.8v-.236h.252l-.1-1.294c0-.067.008-.177.008-.177h-.008a.9.9,0,0,1-.042.168l-.479,1.135h-.261l-.479-1.135a1.293,1.293,0,0,1-.05-.168h-.008a.829.829,0,0,1,.008.177l-.093,1.294h.252v.236H967Z" transform="translate(-967 -6282.966)" fill="#fff"/>
      <path id="Path_111" data-name="Path 111" d="M1302.875,6352.631h.093v-.059a.287.287,0,0,0-.32-.328.781.781,0,0,0-.429.151l-.118-.21a.941.941,0,0,1,.572-.185.525.525,0,0,1,.58.6v.69c0,.05.025.067.067.067h.151v.228h-.3c-.135,0-.185-.067-.185-.168v-.017a.576.576,0,0,1,.008-.1h0a.555.555,0,0,1-.5.328.465.465,0,0,1-.5-.471C1302,6352.664,1302.622,6352.631,1302.875,6352.631Zm-.32.757h0a.466.466,0,0,0,.412-.5v-.067h-.076c-.135,0-.605.008-.605.3A.254.254,0,0,0,1302.555,6353.388Z" transform="translate(-1299.183 -6351.386)" fill="#fff"/>
      <path id="Path_112" data-name="Path 112" d="M1495.017,6284.934h.235v-1.7H1495V6283h.53v1.211h.219l.3-.361h-.193v-.236h.673v.236h-.193l-.37.445h0a.325.325,0,0,1,.109.126l.252.454c.034.05.05.059.135.059h.092v.228h-.227a.213.213,0,0,1-.244-.144l-.294-.521a.145.145,0,0,0-.143-.059h-.118v.5h.2v.228h-.715Z" transform="translate(-1490.56 -6282.966)" fill="#fff"/>
      <path id="Path_113" data-name="Path 113" d="M1704.748,6352a.646.646,0,0,1,.639.723c0,.042-.008.118-.008.118h-1.093a.517.517,0,0,0,.521.521.725.725,0,0,0,.446-.168l.118.21a.9.9,0,0,1-.58.219.776.776,0,0,1-.79-.816A.745.745,0,0,1,1704.748,6352Zm.345.647h0c-.008-.269-.168-.412-.353-.412a.444.444,0,0,0-.437.412Z" transform="translate(-1697.803 -6351.386)" fill="#fff"/>
      <path id="Path_114" data-name="Path 114" d="M1991.269,6280.547v.16c0,.16.193.252.412.252.244,0,.412-.109.412-.328,0-.252-.244-.336-.5-.437-.277-.109-.555-.228-.555-.614,0-.4.311-.58.664-.58.311,0,.631.126.631.361v.252h-.269v-.151c0-.126-.185-.193-.362-.193-.2,0-.362.1-.362.294,0,.235.21.311.437.4.311.118.614.244.614.64a.642.642,0,0,1-.715.63c-.319,0-.681-.152-.681-.462v-.227Z" transform="translate(-1982.39 -6279)" fill="#fff"/>
      <path id="Path_115" data-name="Path 115" d="M2189.008,6353.354h.235v-1.025c0-.042-.025-.059-.067-.059H2189v-.236h.336c.126,0,.185.059.185.176v.076a.517.517,0,0,1-.009.092h.009a.6.6,0,0,1,.53-.378.4.4,0,0,1,.437.361h.008a.586.586,0,0,1,.53-.361c.328,0,.488.2.488.6v.757h.235v.228h-.521v-.925c0-.219-.042-.387-.26-.387-.286,0-.446.294-.446.6v.479h.235v.228h-.521v-.925c0-.2-.025-.387-.26-.387-.278,0-.446.311-.446.613v.471h.235v.228h-.757Z" transform="translate(-2178.725 -6351.386)" fill="#fff"/>
      <path id="Path_116" data-name="Path 116" d="M2536.875,6352.631h.093v-.059a.287.287,0,0,0-.32-.328.781.781,0,0,0-.429.151l-.118-.21a.941.941,0,0,1,.572-.185.525.525,0,0,1,.58.6v.69c0,.05.025.067.067.067h.151v.228h-.3c-.135,0-.185-.067-.185-.168v-.017a.576.576,0,0,1,.008-.1h0a.555.555,0,0,1-.5.328.465.465,0,0,1-.5-.471C2536,6352.664,2536.622,6352.631,2536.875,6352.631Zm-.32.757h0a.466.466,0,0,0,.412-.5v-.067h-.076c-.134,0-.6.008-.6.3A.247.247,0,0,0,2536.555,6353.388Z" transform="translate(-2522.807 -6351.386)" fill="#fff"/>
      <path id="Path_117" data-name="Path 117" d="M2734.025,6355.337h.227v-1.018c0-.05-.025-.067-.067-.067H2734v-.235h.336c.126,0,.193.059.193.186v.092a.622.622,0,0,1-.008.109h.008a.508.508,0,0,1,.471-.4.449.449,0,0,1,.076.009v.294a.475.475,0,0,0-.084-.009c-.319,0-.454.328-.454.631v.412h.219v.227h-.731Z" transform="translate(-2719.142 -6353.37)" fill="#fff"/>
      <path id="Path_118" data-name="Path 118" d="M2874.252,6306.656H2874v-.236h.261V6306h.277v.42h.362v.236h-.362v.723c0,.312.21.353.32.353h.067v.244a.575.575,0,0,1-.1.008.52.52,0,0,1-.572-.58Z" transform="translate(-2857.965 -6305.773)" fill="#fff"/>
      <path id="Path_119" data-name="Path 119" d="M3100.068,6279c.252,0,.79.093.79.429v.261h-.269v-.168c0-.185-.32-.261-.513-.261a.777.777,0,0,0-.773.833.807.807,0,0,0,.79.875c.151,0,.521-.051.521-.252v-.168h.278v.26c0,.32-.521.429-.816.429a1.085,1.085,0,0,1-1.076-1.126A1.064,1.064,0,0,1,3100.068,6279Z" transform="translate(-3081.073 -6279)" fill="#fff"/>
      <path id="Path_120" data-name="Path 120" d="M3353.008,6284.934h.244v-1.7H3353V6283h.53v.807a.842.842,0,0,1-.009.126h.009a.617.617,0,0,1,.555-.354c.353,0,.513.2.513.6v.757h.235v.228h-.521v-.917c0-.218-.042-.395-.277-.395a.539.539,0,0,0-.5.588v.5h.235v.228h-.757Z" transform="translate(-3332.937 -6282.966)" fill="#fff"/>
      <path id="Path_121" data-name="Path 121" d="M3594.807,6352a.812.812,0,1,1-.807.807A.792.792,0,0,1,3594.807,6352Zm0,1.362h0a.557.557,0,1,0-.513-.555A.526.526,0,0,0,3594.807,6353.362Z" transform="translate(-3571.911 -6351.386)" fill="#fff"/>
      <path id="Path_122" data-name="Path 122" d="M3813.017,6284.934h.236v-1.084H3813v-.236h.538v1.32h.235v.228h-.757Zm.227-1.934h.3v.3h-.3Z" transform="translate(-3789.069 -6282.966)" fill="#fff"/>
      <path id="Path_123" data-name="Path 123" d="M3928.8,6352c.219,0,.58.084.58.354v.185h-.252v-.1c0-.126-.194-.185-.32-.185a.511.511,0,0,0-.513.555.519.519,0,0,0,.53.555.778.778,0,0,0,.479-.193l.109.21a.887.887,0,0,1-.605.244.812.812,0,0,1-.008-1.623Z" transform="translate(-3903.102 -6351.386)" fill="#fff"/>
      <path id="Path_124" data-name="Path 124" d="M4123.748,6352a.653.653,0,0,1,.647.723c0,.042-.008.118-.008.118h-1.093a.511.511,0,0,0,.513.521.725.725,0,0,0,.446-.168l.118.21a.87.87,0,0,1-.581.219.775.775,0,0,1-.79-.816A.745.745,0,0,1,4123.748,6352Zm.354.647h0a.374.374,0,0,0-.362-.412.444.444,0,0,0-.437.412Z" transform="translate(-4096.463 -6351.386)" fill="#fff"/>
    </g>
    <g id="_1536212732864" transform="translate(-2065.61 3935.11)">
      <path id="Path_125" data-name="Path 125" d="M10021.488,4067.926h.26v-1.673h-.487v.336H10021V4066h1.791v.589h-.261v-.336h-.487v1.673h.26v.235h-.814Z" transform="translate(-10021 -4066)" fill="#fff"/>
      <path id="Path_126" data-name="Path 126" d="M10257,4067.926h.261l.134-1.69h-.269V4066h.6l.53,1.32a1.224,1.224,0,0,1,.051.151h.008a.706.706,0,0,1,.042-.151l.539-1.32h.588v.235h-.27l.135,1.69h.261v.235h-.8v-.235h.244l-.093-1.295c0-.067.008-.177.008-.177h-.008s-.025.109-.041.168l-.48,1.135h-.26l-.48-1.135a1.419,1.419,0,0,1-.05-.168h-.009a.8.8,0,0,1,.009.177l-.093,1.295h.252v.235H10257Z" transform="translate(-10255.016 -4066)" fill="#fff"/>
    </g>
  </g>
</svg>
