<svg xmlns="http://www.w3.org/2000/svg" width="77.344" height="90" viewBox="0 0 77.344 90">
  <g id="sms" transform="translate(-36)">
    <path id="Path_16" data-name="Path 16" d="M88.031,49.219a1.406,1.406,0,0,0-1.406,1.406V75.938H38.813V14.063H54.281a1.406,1.406,0,0,0,0-2.813H38.813V9.844a7.039,7.039,0,0,1,7.031-7.031h33.75a1.406,1.406,0,0,0,0-2.812H45.844A9.855,9.855,0,0,0,36,9.844V80.156A9.855,9.855,0,0,0,45.844,90h33.75a9.855,9.855,0,0,0,9.844-9.844V50.626A1.406,1.406,0,0,0,88.031,49.219ZM79.594,87.187H45.844a7.039,7.039,0,0,1-7.031-7.031V78.75H86.625v1.406A7.039,7.039,0,0,1,79.594,87.187Z" fill="#1a1b41"/>
    <path id="Path_17" data-name="Path 17" d="M171.031,464h-5.625a1.406,1.406,0,1,0,0,2.812h5.625a1.406,1.406,0,1,0,0-2.812Z" transform="translate(-105.5 -382.438)" fill="#1a1b41"/>
    <path id="Path_18" data-name="Path 18" d="M132.411,32.411a1.409,1.409,0,1,0,.995-.411A1.418,1.418,0,0,0,132.411,32.411Z" transform="translate(-79.125 -26.375)" fill="#1a1b41"/>
    <path id="Path_19" data-name="Path 19" d="M205.406,122.813h8.438a1.406,1.406,0,0,0,0-2.812h-8.438a1.406,1.406,0,0,0,0,2.813Z" transform="translate(-138.469 -98.906)" fill="#1a1b41"/>
    <path id="Path_20" data-name="Path 20" d="M307.906,120h-22.5a1.406,1.406,0,0,0,0,2.813h22.5a1.406,1.406,0,1,0,0-2.812Z" transform="translate(-204.406 -98.906)" fill="#1a1b41"/>
    <path id="Path_21" data-name="Path 21" d="M373.844,160h-8.437a1.406,1.406,0,0,0,0,2.813h8.438a1.406,1.406,0,1,0,0-2.813Z" transform="translate(-270.344 -131.875)" fill="#1a1b41"/>
    <path id="Path_22" data-name="Path 22" d="M205.406,162.813h22.5a1.406,1.406,0,0,0,0-2.813h-22.5a1.406,1.406,0,0,0,0,2.813Z" transform="translate(-138.469 -131.875)" fill="#1a1b41"/>
    <path id="Path_23" data-name="Path 23" d="M241.969,80H205.406a1.406,1.406,0,0,0,0,2.813h36.563a1.406,1.406,0,1,0,0-2.812Z" transform="translate(-138.469 -65.937)" fill="#1a1b41"/>
    <path id="Path_24" data-name="Path 24" d="M241.969,200H205.406a1.406,1.406,0,1,0,0,2.812h36.563a1.406,1.406,0,1,0,0-2.812Z" transform="translate(-138.469 -164.844)" fill="#1a1b41"/>
    <path id="Path_25" data-name="Path 25" d="M202.406,32H165.844A9.855,9.855,0,0,0,156,41.844V62.938a9.859,9.859,0,0,0,8.438,9.744v5.143a2.812,2.812,0,0,0,4.8,1.989l7.031-7.031h26.136a9.855,9.855,0,0,0,9.844-9.844V41.844A9.855,9.855,0,0,0,202.406,32Zm7.031,30.938a7.039,7.039,0,0,1-7.031,7.031H175.687a1.406,1.406,0,0,0-.994.412l-7.443,7.442V71.375a1.406,1.406,0,0,0-1.406-1.406,7.039,7.039,0,0,1-7.031-7.031V41.844a7.039,7.039,0,0,1,7.031-7.031h36.563a7.039,7.039,0,0,1,7.031,7.031Z" transform="translate(-98.906 -26.375)" fill="#1a1b41"/>
  </g>
</svg>
