<svg xmlns="http://www.w3.org/2000/svg" width="265.415" height="246.234" viewBox="0 0 265.415 246.234">
  <g id="wireless-router" transform="translate(0 -18.5)">
    <g id="Group_90" data-name="Group 90" transform="translate(0 18.5)">
      <g id="Group_89" data-name="Group 89">
        <path id="Path_58" data-name="Path 58" d="M182.343,241.407H7.776V184.9H66.613a3.888,3.888,0,0,0,0-7.776H61.947V153.022a3.888,3.888,0,0,0-3.888-3.888H54.172V30.164a11.664,11.664,0,1,0-23.327,0v118.97H26.956a3.888,3.888,0,0,0-3.888,3.888v24.105H3.888A3.888,3.888,0,0,0,0,181.015v64.28a3.888,3.888,0,0,0,3.888,3.888H19.019V256.7a8.044,8.044,0,0,0,8.035,8.035H43.642a8.044,8.044,0,0,0,8.035-8.035v-7.517H182.343a3.888,3.888,0,0,0,0-7.776ZM38.62,30.164a3.888,3.888,0,1,1,7.776,0v118.97H38.62ZM30.844,156.909H54.172v20.217H30.844ZM43.9,256.7a.259.259,0,0,1-.259.259H27.054a.259.259,0,0,1-.259-.259v-7.517H43.9Z" transform="translate(0 -18.5)" fill="#1b1b1e"/>
      </g>
    </g>
    <g id="Group_92" data-name="Group 92" transform="translate(79.313 18.5)">
      <g id="Group_91" data-name="Group 91">
        <path id="Path_59" data-name="Path 59" d="M335.213,177.127h-19.18V153.022a3.888,3.888,0,0,0-3.888-3.888h-3.888V30.164a11.664,11.664,0,0,0-23.327,0v88.558a3.888,3.888,0,1,0,7.776,0V30.164a3.888,3.888,0,0,1,7.776,0v118.97h-7.776V135.31a3.888,3.888,0,1,0-7.776,0v13.824h-3.888a3.888,3.888,0,0,0-3.888,3.888v24.105H156.888a3.888,3.888,0,1,0,0,7.776H331.325v56.5H273.093a3.888,3.888,0,1,0,0,7.776h14.331V256.7a8.044,8.044,0,0,0,8.035,8.035h16.588a8.044,8.044,0,0,0,8.035-8.035v-7.517h15.131a3.888,3.888,0,0,0,3.888-3.888v-64.28A3.888,3.888,0,0,0,335.213,177.127Zm-26.956,0H284.93V156.909h23.327Zm4.05,79.572a.26.26,0,0,1-.259.259H295.459a.26.26,0,0,1-.259-.259v-7.517h17.107Z" transform="translate(-153 -18.5)" fill="#1b1b1e"/>
      </g>
    </g>
    <g id="Group_94" data-name="Group 94" transform="translate(145.717 192.414)">
      <g id="Group_93" data-name="Group 93">
        <path id="Path_60" data-name="Path 60" d="M320.234,353.991h-35.25a3.888,3.888,0,0,0-3.888,3.888v23.836a3.888,3.888,0,0,0,3.888,3.888h2.984v5.452a3.888,3.888,0,0,0,3.888,3.888h21.505a3.888,3.888,0,0,0,3.888-3.888V385.6h2.985a3.888,3.888,0,0,0,3.888-3.888V357.879A3.888,3.888,0,0,0,320.234,353.991Zm-3.888,23.837h-2.985a3.888,3.888,0,0,0-3.888,3.888v5.452H295.744v-5.452a3.888,3.888,0,0,0-3.888-3.888h-2.984V361.767h27.475Z" transform="translate(-281.096 -353.991)" fill="#43cc0e"/>
      </g>
    </g>
    <g id="Group_96" data-name="Group 96" transform="translate(194.618 192.414)">
      <g id="Group_95" data-name="Group 95">
        <path id="Path_61" data-name="Path 61" d="M414.568,353.991h-35.25a3.888,3.888,0,0,0-3.888,3.888v23.836a3.888,3.888,0,0,0,3.888,3.888H382.3v5.452a3.888,3.888,0,0,0,3.888,3.888H407.7a3.888,3.888,0,0,0,3.888-3.888V385.6h2.985a3.888,3.888,0,0,0,3.888-3.888V357.879A3.888,3.888,0,0,0,414.568,353.991Zm-3.888,23.837H407.7a3.888,3.888,0,0,0-3.888,3.888v5.452H390.078v-5.452a3.888,3.888,0,0,0-3.888-3.888h-2.984V361.767H410.68Z" transform="translate(-375.43 -353.991)" fill="#43cc0e"/>
      </g>
    </g>
    <g id="Group_98" data-name="Group 98" transform="translate(27.771 201.491)">
      <g id="Group_97" data-name="Group 97">
        <path id="Path_62" data-name="Path 62" d="M65.235,371.5A11.664,11.664,0,1,0,76.9,383.164,11.677,11.677,0,0,0,65.235,371.5Zm0,15.552a3.888,3.888,0,1,1,3.888-3.888A3.892,3.892,0,0,1,65.235,387.052Z" transform="translate(-53.571 -371.5)" fill="#1b1b1e"/>
      </g>
    </g>
    <g id="Group_100" data-name="Group 100" transform="translate(59.578 201.491)">
      <g id="Group_99" data-name="Group 99">
        <path id="Path_63" data-name="Path 63" d="M126.594,371.5a11.664,11.664,0,1,0,11.664,11.664A11.677,11.677,0,0,0,126.594,371.5Zm0,15.552a3.888,3.888,0,1,1,3.888-3.888A3.892,3.892,0,0,1,126.594,387.052Z" transform="translate(-114.93 -371.5)" fill="#1b1b1e"/>
      </g>
    </g>
    <g id="Group_102" data-name="Group 102" transform="translate(91.951 197.598)">
      <g id="Group_101" data-name="Group 101">
        <path id="Path_64" data-name="Path 64" d="M212.37,363.991h-31.1a3.888,3.888,0,1,0,0,7.776h31.1a3.888,3.888,0,1,0,0-7.776Z" transform="translate(-177.379 -363.991)" fill="#1b1b1e"/>
      </g>
    </g>
    <g id="Group_104" data-name="Group 104" transform="translate(91.951 209.003)">
      <g id="Group_103" data-name="Group 103">
        <path id="Path_65" data-name="Path 65" d="M212.37,385.991h-31.1a3.888,3.888,0,0,0,0,7.776h31.1a3.888,3.888,0,1,0,0-7.776Z" transform="translate(-177.379 -385.991)" fill="#1b1b1e"/>
      </g>
    </g>
    <g id="Group_106" data-name="Group 106" transform="translate(91.951 220.407)">
      <g id="Group_105" data-name="Group 105">
        <path id="Path_66" data-name="Path 66" d="M212.37,407.991h-31.1a3.888,3.888,0,1,0,0,7.776h31.1a3.888,3.888,0,1,0,0-7.776Z" transform="translate(-177.379 -407.991)" fill="#1b1b1e"/>
      </g>
    </g>
  </g>
</svg>
